<mxfile host="app.diagrams.net" agent="Mozilla/5.0 (Windows NT 6.1; Win64; x64) AppleWebKit/537.36 (KHTML, like Gecko) Chrome/109.0.0.0 Safari/537.36" version="28.2.6">
  <diagram name="Page-1" id="HR4AoYdhBA_ZuwmYO4A6">
    <mxGraphModel dx="1981" dy="1930" grid="1" gridSize="10" guides="1" tooltips="1" connect="1" arrows="1" fold="1" page="1" pageScale="1" pageWidth="850" pageHeight="1100" math="1" shadow="0">
      <root>
        <mxCell id="0" />
        <mxCell id="1" parent="0" />
        <mxCell id="9jRYzSWk1DNEKQnd29JY-1" value="" style="endArrow=oval;html=1;rounded=0;strokeWidth=5;endFill=1;endSize=13;strokeColor=#FF0000;" parent="1" edge="1">
          <mxGeometry width="50" height="50" relative="1" as="geometry">
            <mxPoint x="40" y="200" as="sourcePoint" />
            <mxPoint x="40" y="120" as="targetPoint" />
          </mxGeometry>
        </mxCell>
        <mxCell id="9jRYzSWk1DNEKQnd29JY-2" value="" style="endArrow=oval;html=1;rounded=0;strokeWidth=5;endFill=1;endSize=13;strokeColor=#FF0000;" parent="1" edge="1">
          <mxGeometry width="50" height="50" relative="1" as="geometry">
            <mxPoint x="160" y="200" as="sourcePoint" />
            <mxPoint x="160" y="40" as="targetPoint" />
          </mxGeometry>
        </mxCell>
        <mxCell id="9jRYzSWk1DNEKQnd29JY-3" value="" style="endArrow=oval;html=1;rounded=0;strokeWidth=5;endFill=1;endSize=13;strokeColor=#FF0000;" parent="1" edge="1">
          <mxGeometry width="50" height="50" relative="1" as="geometry">
            <mxPoint x="280" y="200" as="sourcePoint" />
            <mxPoint x="280" y="80" as="targetPoint" />
          </mxGeometry>
        </mxCell>
        <mxCell id="9jRYzSWk1DNEKQnd29JY-4" value="" style="endArrow=oval;html=1;rounded=0;strokeWidth=5;endFill=1;endSize=13;strokeColor=#FF0000;" parent="1" edge="1">
          <mxGeometry width="50" height="50" relative="1" as="geometry">
            <mxPoint x="400" y="200" as="sourcePoint" />
            <mxPoint x="400" y="160" as="targetPoint" />
          </mxGeometry>
        </mxCell>
        <mxCell id="9jRYzSWk1DNEKQnd29JY-7" value="" style="endArrow=blockThin;html=1;rounded=0;strokeWidth=3;endFill=1;" parent="1" edge="1">
          <mxGeometry width="50" height="50" relative="1" as="geometry">
            <mxPoint y="200" as="sourcePoint" />
            <mxPoint x="440" y="200" as="targetPoint" />
          </mxGeometry>
        </mxCell>
        <mxCell id="9jRYzSWk1DNEKQnd29JY-13" value="" style="endArrow=blockThin;html=1;rounded=0;strokeWidth=5;endFill=1;endSize=13;strokeColor=#009900;" parent="1" edge="1">
          <mxGeometry width="50" height="50" relative="1" as="geometry">
            <mxPoint x="600" y="200" as="sourcePoint" />
            <mxPoint x="600" y="120" as="targetPoint" />
          </mxGeometry>
        </mxCell>
        <mxCell id="9jRYzSWk1DNEKQnd29JY-14" value="" style="endArrow=blockThin;html=1;rounded=0;strokeWidth=5;endFill=1;endSize=13;strokeColor=#009900;" parent="1" edge="1">
          <mxGeometry width="50" height="50" relative="1" as="geometry">
            <mxPoint x="720" y="200" as="sourcePoint" />
            <mxPoint x="720" y="40" as="targetPoint" />
          </mxGeometry>
        </mxCell>
        <mxCell id="9jRYzSWk1DNEKQnd29JY-15" value="" style="endArrow=blockThin;html=1;rounded=0;strokeWidth=5;endFill=1;endSize=13;strokeColor=#009900;" parent="1" edge="1">
          <mxGeometry width="50" height="50" relative="1" as="geometry">
            <mxPoint x="840" y="200" as="sourcePoint" />
            <mxPoint x="840" y="80" as="targetPoint" />
          </mxGeometry>
        </mxCell>
        <mxCell id="9jRYzSWk1DNEKQnd29JY-16" value="" style="endArrow=blockThin;html=1;rounded=0;strokeWidth=5;endFill=1;endSize=13;strokeColor=#009900;" parent="1" edge="1">
          <mxGeometry width="50" height="50" relative="1" as="geometry">
            <mxPoint x="960" y="200" as="sourcePoint" />
            <mxPoint x="960" y="160" as="targetPoint" />
          </mxGeometry>
        </mxCell>
        <mxCell id="9jRYzSWk1DNEKQnd29JY-17" value="" style="endArrow=blockThin;html=1;rounded=0;strokeWidth=3;endFill=1;" parent="1" edge="1">
          <mxGeometry width="50" height="50" relative="1" as="geometry">
            <mxPoint x="560" y="200" as="sourcePoint" />
            <mxPoint x="1000" y="200" as="targetPoint" />
          </mxGeometry>
        </mxCell>
        <mxCell id="9jRYzSWk1DNEKQnd29JY-22" value="" style="endArrow=none;html=1;rounded=0;strokeWidth=5;endFill=0;endSize=13;strokeColor=#0000FF;" parent="1" edge="1">
          <mxGeometry width="50" height="50" relative="1" as="geometry">
            <mxPoint x="1200" y="200" as="sourcePoint" />
            <mxPoint x="1200" y="120" as="targetPoint" />
          </mxGeometry>
        </mxCell>
        <mxCell id="9jRYzSWk1DNEKQnd29JY-23" value="" style="endArrow=none;html=1;rounded=0;strokeWidth=5;endFill=0;endSize=13;strokeColor=#0000FF;" parent="1" edge="1">
          <mxGeometry width="50" height="50" relative="1" as="geometry">
            <mxPoint x="1320" y="200" as="sourcePoint" />
            <mxPoint x="1320" y="40" as="targetPoint" />
          </mxGeometry>
        </mxCell>
        <mxCell id="9jRYzSWk1DNEKQnd29JY-24" value="" style="endArrow=none;html=1;rounded=0;strokeWidth=5;endFill=0;endSize=13;strokeColor=#0000FF;" parent="1" edge="1">
          <mxGeometry width="50" height="50" relative="1" as="geometry">
            <mxPoint x="1440" y="200" as="sourcePoint" />
            <mxPoint x="1440" y="80" as="targetPoint" />
          </mxGeometry>
        </mxCell>
        <mxCell id="9jRYzSWk1DNEKQnd29JY-25" value="" style="endArrow=none;html=1;rounded=0;strokeWidth=5;endFill=0;endSize=13;strokeColor=#0000FF;" parent="1" edge="1">
          <mxGeometry width="50" height="50" relative="1" as="geometry">
            <mxPoint x="1560" y="200" as="sourcePoint" />
            <mxPoint x="1560" y="160" as="targetPoint" />
          </mxGeometry>
        </mxCell>
        <mxCell id="9jRYzSWk1DNEKQnd29JY-26" value="" style="endArrow=blockThin;html=1;rounded=0;strokeWidth=3;endFill=1;" parent="1" edge="1">
          <mxGeometry width="50" height="50" relative="1" as="geometry">
            <mxPoint x="1160" y="200" as="sourcePoint" />
            <mxPoint x="1720" y="200" as="targetPoint" />
          </mxGeometry>
        </mxCell>
        <mxCell id="9jRYzSWk1DNEKQnd29JY-27" value="" style="rounded=0;whiteSpace=wrap;html=1;fillColor=none;strokeColor=#0000FF;strokeWidth=5;" parent="1" vertex="1">
          <mxGeometry x="1200" y="120" width="120" height="80" as="geometry" />
        </mxCell>
        <mxCell id="9jRYzSWk1DNEKQnd29JY-28" value="" style="rounded=0;whiteSpace=wrap;html=1;fillColor=none;strokeColor=#0000FF;strokeWidth=5;" parent="1" vertex="1">
          <mxGeometry x="1320" y="40" width="120" height="160" as="geometry" />
        </mxCell>
        <mxCell id="9jRYzSWk1DNEKQnd29JY-30" value="" style="rounded=0;whiteSpace=wrap;html=1;fillColor=none;strokeColor=#0000FF;strokeWidth=5;" parent="1" vertex="1">
          <mxGeometry x="1560" y="160" width="120" height="40" as="geometry" />
        </mxCell>
        <mxCell id="9jRYzSWk1DNEKQnd29JY-31" value="" style="rounded=0;whiteSpace=wrap;html=1;fillColor=none;strokeColor=#0000FF;strokeWidth=5;" parent="1" vertex="1">
          <mxGeometry x="1440" y="80" width="120" height="120" as="geometry" />
        </mxCell>
        <mxCell id="9jRYzSWk1DNEKQnd29JY-33" value="&lt;font style=&quot;font-size: 24px; color: rgb(255, 0, 0);&quot;&gt;$$q[n]$$&lt;/font&gt;" style="text;html=1;align=center;verticalAlign=middle;whiteSpace=wrap;rounded=0;" parent="1" vertex="1">
          <mxGeometry x="240" y="20" width="60" height="30" as="geometry" />
        </mxCell>
        <mxCell id="9jRYzSWk1DNEKQnd29JY-34" value="&lt;font style=&quot;font-size: 24px; color: rgb(0, 153, 0);&quot;&gt;$$q(t)=\sum_nq[n]\delta(t-nT_r]$$&lt;/font&gt;" style="text;html=1;align=center;verticalAlign=middle;whiteSpace=wrap;rounded=0;" parent="1" vertex="1">
          <mxGeometry x="860" y="30" width="60" height="30" as="geometry" />
        </mxCell>
        <mxCell id="9jRYzSWk1DNEKQnd29JY-36" value="&lt;font style=&quot;font-size: 24px; color: rgb(0, 0, 255);&quot;&gt;$$y(t)$$&lt;/font&gt;" style="text;html=1;align=center;verticalAlign=middle;whiteSpace=wrap;rounded=0;" parent="1" vertex="1">
          <mxGeometry x="1600" y="20" width="60" height="30" as="geometry" />
        </mxCell>
        <mxCell id="9jRYzSWk1DNEKQnd29JY-37" value="" style="shape=flexArrow;endArrow=classic;html=1;rounded=0;strokeWidth=3;fillColor=#e1d5e7;strokeColor=#9673a6;" parent="1" edge="1">
          <mxGeometry width="50" height="50" relative="1" as="geometry">
            <mxPoint x="460" y="119.41" as="sourcePoint" />
            <mxPoint x="540" y="119.41" as="targetPoint" />
          </mxGeometry>
        </mxCell>
        <mxCell id="9jRYzSWk1DNEKQnd29JY-38" value="&lt;font style=&quot;color: rgb(166, 128, 184); font-size: 24px;&quot;&gt;&lt;b style=&quot;&quot;&gt;&lt;i style=&quot;&quot;&gt;z to s&lt;/i&gt;&lt;/b&gt;&lt;/font&gt;" style="text;html=1;align=center;verticalAlign=middle;whiteSpace=wrap;rounded=0;" parent="1" vertex="1">
          <mxGeometry x="460" y="70" width="90" height="30" as="geometry" />
        </mxCell>
        <mxCell id="9jRYzSWk1DNEKQnd29JY-39" value="" style="shape=flexArrow;endArrow=classic;html=1;rounded=0;strokeWidth=3;fillColor=#e1d5e7;strokeColor=#9673a6;" parent="1" edge="1">
          <mxGeometry width="50" height="50" relative="1" as="geometry">
            <mxPoint x="1050" y="119.40999999999997" as="sourcePoint" />
            <mxPoint x="1130" y="119.40999999999997" as="targetPoint" />
          </mxGeometry>
        </mxCell>
        <mxCell id="9jRYzSWk1DNEKQnd29JY-40" value="&lt;font style=&quot;color: rgb(166, 128, 184); font-size: 24px;&quot;&gt;&lt;b style=&quot;&quot;&gt;&lt;i style=&quot;&quot;&gt;ZOH&lt;/i&gt;&lt;/b&gt;&lt;/font&gt;" style="text;html=1;align=center;verticalAlign=middle;whiteSpace=wrap;rounded=0;" parent="1" vertex="1">
          <mxGeometry x="1050" y="70" width="60" height="30" as="geometry" />
        </mxCell>
        <mxCell id="9jRYzSWk1DNEKQnd29JY-42" value="" style="endArrow=blockThin;html=1;rounded=0;strokeWidth=3;endFill=1;" parent="1" edge="1">
          <mxGeometry width="50" height="50" relative="1" as="geometry">
            <mxPoint y="440" as="sourcePoint" />
            <mxPoint x="440" y="440" as="targetPoint" />
          </mxGeometry>
        </mxCell>
        <mxCell id="9jRYzSWk1DNEKQnd29JY-43" value="" style="endArrow=none;html=1;rounded=0;strokeWidth=4;strokeColor=#FF0000;" parent="1" edge="1">
          <mxGeometry width="50" height="50" relative="1" as="geometry">
            <mxPoint x="40" y="440" as="sourcePoint" />
            <mxPoint x="200" y="320" as="targetPoint" />
          </mxGeometry>
        </mxCell>
        <mxCell id="9jRYzSWk1DNEKQnd29JY-44" value="" style="endArrow=none;html=1;rounded=0;strokeWidth=4;strokeColor=#FF0000;" parent="1" edge="1">
          <mxGeometry width="50" height="50" relative="1" as="geometry">
            <mxPoint x="200" y="320" as="sourcePoint" />
            <mxPoint x="360" y="440" as="targetPoint" />
          </mxGeometry>
        </mxCell>
        <mxCell id="9jRYzSWk1DNEKQnd29JY-45" value="" style="endArrow=none;html=1;rounded=0;dashed=1;strokeWidth=2;" parent="1" edge="1">
          <mxGeometry width="50" height="50" relative="1" as="geometry">
            <mxPoint x="35" y="320" as="sourcePoint" />
            <mxPoint x="365" y="320" as="targetPoint" />
          </mxGeometry>
        </mxCell>
        <mxCell id="9jRYzSWk1DNEKQnd29JY-46" value="&lt;font style=&quot;font-size: 24px; color: rgb(255, 0, 0);&quot;&gt;$$S_q$$&lt;/font&gt;" style="text;html=1;align=center;verticalAlign=middle;whiteSpace=wrap;rounded=0;" parent="1" vertex="1">
          <mxGeometry x="360" y="310" width="60" height="30" as="geometry" />
        </mxCell>
        <mxCell id="9jRYzSWk1DNEKQnd29JY-47" value="" style="endArrow=blockThin;html=1;rounded=0;strokeWidth=3;endFill=1;" parent="1" edge="1">
          <mxGeometry width="50" height="50" relative="1" as="geometry">
            <mxPoint x="563" y="440" as="sourcePoint" />
            <mxPoint x="1003" y="440" as="targetPoint" />
          </mxGeometry>
        </mxCell>
        <mxCell id="9jRYzSWk1DNEKQnd29JY-48" value="" style="endArrow=none;html=1;rounded=0;strokeWidth=4;strokeColor=#009900;" parent="1" edge="1">
          <mxGeometry width="50" height="50" relative="1" as="geometry">
            <mxPoint x="603" y="440" as="sourcePoint" />
            <mxPoint x="763" y="360" as="targetPoint" />
          </mxGeometry>
        </mxCell>
        <mxCell id="9jRYzSWk1DNEKQnd29JY-49" value="" style="endArrow=none;html=1;rounded=0;strokeWidth=4;strokeColor=#009900;" parent="1" edge="1">
          <mxGeometry width="50" height="50" relative="1" as="geometry">
            <mxPoint x="763" y="360" as="sourcePoint" />
            <mxPoint x="923" y="440" as="targetPoint" />
          </mxGeometry>
        </mxCell>
        <mxCell id="9jRYzSWk1DNEKQnd29JY-50" value="" style="endArrow=none;html=1;rounded=0;dashed=1;strokeWidth=2;" parent="1" edge="1">
          <mxGeometry width="50" height="50" relative="1" as="geometry">
            <mxPoint x="593" y="360" as="sourcePoint" />
            <mxPoint x="923" y="360" as="targetPoint" />
          </mxGeometry>
        </mxCell>
        <mxCell id="9jRYzSWk1DNEKQnd29JY-51" value="&lt;font style=&quot;font-size: 24px; color: rgb(0, 153, 0);&quot;&gt;$$\frac{S_q}{T_r^2}$$&lt;/font&gt;" style="text;html=1;align=center;verticalAlign=middle;whiteSpace=wrap;rounded=0;" parent="1" vertex="1">
          <mxGeometry x="928" y="340" width="60" height="30" as="geometry" />
        </mxCell>
        <mxCell id="9jRYzSWk1DNEKQnd29JY-52" style="edgeStyle=orthogonalEdgeStyle;rounded=0;orthogonalLoop=1;jettySize=auto;html=1;exitX=0.5;exitY=1;exitDx=0;exitDy=0;" parent="1" source="9jRYzSWk1DNEKQnd29JY-46" target="9jRYzSWk1DNEKQnd29JY-46" edge="1">
          <mxGeometry relative="1" as="geometry" />
        </mxCell>
        <mxCell id="9jRYzSWk1DNEKQnd29JY-53" value="" style="endArrow=blockThin;html=1;rounded=0;strokeWidth=3;endFill=1;" parent="1" edge="1">
          <mxGeometry width="50" height="50" relative="1" as="geometry">
            <mxPoint x="1240" y="440" as="sourcePoint" />
            <mxPoint x="1680" y="440" as="targetPoint" />
          </mxGeometry>
        </mxCell>
        <mxCell id="9jRYzSWk1DNEKQnd29JY-54" value="" style="endArrow=none;html=1;rounded=0;strokeWidth=4;strokeColor=#0000FF;" parent="1" edge="1">
          <mxGeometry width="50" height="50" relative="1" as="geometry">
            <mxPoint x="1280" y="440" as="sourcePoint" />
            <mxPoint x="1440" y="320" as="targetPoint" />
          </mxGeometry>
        </mxCell>
        <mxCell id="9jRYzSWk1DNEKQnd29JY-55" value="" style="endArrow=none;html=1;rounded=0;strokeWidth=4;strokeColor=#0000FF;" parent="1" edge="1">
          <mxGeometry width="50" height="50" relative="1" as="geometry">
            <mxPoint x="1440" y="320" as="sourcePoint" />
            <mxPoint x="1600" y="440" as="targetPoint" />
          </mxGeometry>
        </mxCell>
        <mxCell id="9jRYzSWk1DNEKQnd29JY-56" value="" style="endArrow=none;html=1;rounded=0;dashed=1;strokeWidth=2;" parent="1" edge="1">
          <mxGeometry width="50" height="50" relative="1" as="geometry">
            <mxPoint x="1275" y="320" as="sourcePoint" />
            <mxPoint x="1605" y="320" as="targetPoint" />
          </mxGeometry>
        </mxCell>
        <mxCell id="9jRYzSWk1DNEKQnd29JY-57" value="&lt;font style=&quot;font-size: 24px; color: rgb(0, 0, 255);&quot;&gt;$$S_y=S_q$$&lt;/font&gt;" style="text;html=1;align=center;verticalAlign=middle;whiteSpace=wrap;rounded=0;" parent="1" vertex="1">
          <mxGeometry x="1610" y="280" width="60" height="30" as="geometry" />
        </mxCell>
        <mxCell id="9jRYzSWk1DNEKQnd29JY-58" style="edgeStyle=orthogonalEdgeStyle;rounded=0;orthogonalLoop=1;jettySize=auto;html=1;exitX=0.5;exitY=1;exitDx=0;exitDy=0;" parent="1" source="9jRYzSWk1DNEKQnd29JY-57" target="9jRYzSWk1DNEKQnd29JY-57" edge="1">
          <mxGeometry relative="1" as="geometry" />
        </mxCell>
        <mxCell id="9jRYzSWk1DNEKQnd29JY-59" value="" style="shape=flexArrow;endArrow=classic;html=1;rounded=0;strokeWidth=3;fillColor=#e1d5e7;strokeColor=#9673a6;" parent="1" edge="1">
          <mxGeometry width="50" height="50" relative="1" as="geometry">
            <mxPoint x="460" y="368.57" as="sourcePoint" />
            <mxPoint x="540" y="368.57" as="targetPoint" />
          </mxGeometry>
        </mxCell>
        <mxCell id="9jRYzSWk1DNEKQnd29JY-60" value="&lt;font style=&quot;font-size: 24px; color: rgb(255, 0, 255);&quot;&gt;&lt;b style=&quot;&quot;&gt;&lt;i style=&quot;&quot;&gt;$$\times \frac{1}{T_r^2}$$&lt;/i&gt;&lt;/b&gt;&lt;/font&gt;" style="text;html=1;align=center;verticalAlign=middle;whiteSpace=wrap;rounded=0;" parent="1" vertex="1">
          <mxGeometry x="440" y="309.99999999999994" width="90" height="30" as="geometry" />
        </mxCell>
        <mxCell id="9jRYzSWk1DNEKQnd29JY-61" value="" style="shape=flexArrow;endArrow=classic;html=1;rounded=0;strokeWidth=3;fillColor=#e1d5e7;strokeColor=#9673a6;" parent="1" edge="1">
          <mxGeometry width="50" height="50" relative="1" as="geometry">
            <mxPoint x="1060" y="368.57000000000005" as="sourcePoint" />
            <mxPoint x="1140" y="368.57000000000005" as="targetPoint" />
          </mxGeometry>
        </mxCell>
        <mxCell id="9jRYzSWk1DNEKQnd29JY-62" value="&lt;font style=&quot;font-size: 24px; color: rgb(255, 0, 255);&quot;&gt;&lt;b style=&quot;&quot;&gt;&lt;i style=&quot;&quot;&gt;$$\times T_r^2$$&lt;/i&gt;&lt;/b&gt;&lt;/font&gt;" style="text;html=1;align=center;verticalAlign=middle;whiteSpace=wrap;rounded=0;" parent="1" vertex="1">
          <mxGeometry x="1040" y="310" width="90" height="30" as="geometry" />
        </mxCell>
        <mxCell id="9jRYzSWk1DNEKQnd29JY-63" value="&lt;font style=&quot;font-size: 24px; color: rgb(0, 0, 0);&quot;&gt;$$t$$&lt;/font&gt;" style="text;html=1;align=center;verticalAlign=middle;whiteSpace=wrap;rounded=0;" parent="1" vertex="1">
          <mxGeometry x="395" y="220" width="60" height="30" as="geometry" />
        </mxCell>
        <mxCell id="9jRYzSWk1DNEKQnd29JY-64" value="&lt;font style=&quot;font-size: 24px; color: rgb(0, 0, 0);&quot;&gt;$$t$$&lt;/font&gt;" style="text;html=1;align=center;verticalAlign=middle;whiteSpace=wrap;rounded=0;" parent="1" vertex="1">
          <mxGeometry x="960" y="220" width="60" height="30" as="geometry" />
        </mxCell>
        <mxCell id="9jRYzSWk1DNEKQnd29JY-65" value="&lt;font style=&quot;font-size: 24px; color: rgb(0, 0, 0);&quot;&gt;$$t$$&lt;/font&gt;" style="text;html=1;align=center;verticalAlign=middle;whiteSpace=wrap;rounded=0;" parent="1" vertex="1">
          <mxGeometry x="1680" y="220" width="60" height="30" as="geometry" />
        </mxCell>
        <mxCell id="9jRYzSWk1DNEKQnd29JY-66" value="&lt;font style=&quot;font-size: 24px; color: rgb(0, 0, 0);&quot;&gt;$$f$$&lt;/font&gt;" style="text;html=1;align=center;verticalAlign=middle;whiteSpace=wrap;rounded=0;" parent="1" vertex="1">
          <mxGeometry x="395" y="460" width="60" height="30" as="geometry" />
        </mxCell>
        <mxCell id="9jRYzSWk1DNEKQnd29JY-67" value="&lt;font style=&quot;font-size: 24px; color: rgb(0, 0, 0);&quot;&gt;$$f$$&lt;/font&gt;" style="text;html=1;align=center;verticalAlign=middle;whiteSpace=wrap;rounded=0;" parent="1" vertex="1">
          <mxGeometry x="960" y="460" width="60" height="30" as="geometry" />
        </mxCell>
        <mxCell id="9jRYzSWk1DNEKQnd29JY-68" value="&lt;font style=&quot;font-size: 24px; color: rgb(0, 0, 0);&quot;&gt;$$f$$&lt;/font&gt;" style="text;html=1;align=center;verticalAlign=middle;whiteSpace=wrap;rounded=0;" parent="1" vertex="1">
          <mxGeometry x="1640" y="460" width="60" height="30" as="geometry" />
        </mxCell>
      </root>
    </mxGraphModel>
  </diagram>
</mxfile>
